<svg version="1" xmlns="http://www.w3.org/2000/svg" width="834.667" height="834.667" viewBox="0 0 626.000000 626.000000"><path d="M101.5 1.9c-5.6 2.5-10.2 6.7-12.8 11.5l-2.2 4.1-.3 103.2L86 224h-9.3c-17.8 0-27.1 4.4-35.5 16.6-5.2 7.6-5.2 7.5-5.2 109.9 0 103.6-.1 100.4 5.8 110 6.5 10.5 16.4 15.3 33.3 16.2l10.8.6.3 65.6c.3 65.5.3 65.6 2.5 69.7 2.6 4.8 7.2 9 12.8 11.5 3.8 1.8 12.8 1.9 211.5 1.9s207.7-.1 211.5-1.9c5.6-2.5 10.2-6.7 12.8-11.5 2.2-4.1 2.2-4.2 2.5-69.7l.3-65.6 10.8-.6c16.9-.9 26.8-5.7 33.3-16.2 5.9-9.6 5.8-6.4 5.8-110 0-102.4 0-102.3-5.2-109.9-8.4-12.2-17.7-16.6-35.5-16.6H540v-37.5c0-30.1-.3-38.2-1.4-41-.8-1.8-6.3-8.9-12.3-15.7-15.8-18-44.2-50.5-48.4-55.2-2-2.3-11.8-13.6-21.9-25.1-10.1-11.6-21.1-24.2-24.5-28-3.4-3.9-8.2-9.3-10.6-12.1-2.4-2.8-5.8-6.1-7.5-7.2l-3-2.2H257.9C112.6 0 105.3.1 101.5 1.9zM395 89.1c0 57.2.2 64.4 1.6 66.8 3.4 5.8 1.2 5.6 62.4 6.1l56.5.5.3 30.7.2 30.8H110V25h285v64.1zm-226 166c8.2 1.2 19.9 4.3 24.3 6.6 1.9 1 2.7 2 2.4 3.1-.2.9-1.9 7.1-3.6 13.7-2.9 11.1-5 17.5-5.6 17.5-.1 0-2.3-.9-4.9-2-13.4-6-37.4-7.9-47.5-3.7-7.4 3-11.4 8.1-11.5 14.5-.2 9.3 6 14.9 23.9 22.2 33 13.3 44.9 21.7 52.8 37.5 4.5 9 5.3 27 1.7 37.9-6.5 19.6-21.9 32-47.2 37.7-16.8 3.8-43.5 2.4-61.3-3.1-5.7-1.7-13.6-4.8-14.4-5.6-.3-.3 3.7-17.4 6.6-28.2 1.7-6.2 1.2-6.2 13.8-1.3 14.6 5.6 34.7 7.8 46.3 4.9 10.8-2.6 17-10.6 15.9-20.4-.9-8.4-8.1-14.8-23.4-20.8-25.3-9.9-35.5-15.7-44-25-7-7.6-11-16.1-12.5-26.3-1-7.2-1-9.2.6-16 3.3-14 10.2-24.2 21.4-31.6 17.8-11.8 38.5-15.4 66.2-11.6zm343.7.3c9.8.6 25 3.5 32 6.2 3.2 1.3 4.3 2.2 4.3 3.8-.1 3.5-7.7 30-8.7 30.3-.6.2-4.4-.7-8.5-2.1-14.1-4.6-37-5.7-51.9-2.5-11.2 2.4-23.6 10-30.3 18.6-8.7 11-12.3 25-11.2 43.3.8 14.4 3.5 22.8 10.6 33.4 6 8.8 18 16.7 30 19.7 6.7 1.7 30.2 1.7 34.3.1l2.7-1.2-.2-18.7-.3-18.8-14-.5-14-.5-.3-15.8-.3-15.7H556v47.2c0 26-.4 47.9-.8 48.5-.4.7-6 2.6-12.3 4.3-32.2 8.4-68 8.5-91.8.3-39.6-13.6-60.7-49.6-56.1-95.8 4.2-43.1 31-72.2 75.3-81.9 7.7-1.7 26-3.5 30.7-3 1.4.2 6.7.5 11.7.8zm-251.3 1.5c.4.5 1.8 4.9 3.2 9.8 8.2 28.1 13.9 47.9 16.1 55.8 1.4 4.9 3.6 12.8 4.9 17.5 3.2 11.1 9.7 36.9 12.4 49.2 1.2 5.4 2.6 9.5 3.1 9.2.5-.3.9-1.2.9-2 0-2.3 5.5-24.9 9.6-39.9 5.5-19.8 10.4-36.7 11.4-39.5.4-1.4 2.3-7.5 4-13.5 1.7-6.1 4.2-14.4 5.5-18.5 1.3-4.1 3.6-11.8 5.1-17 1.5-5.2 3.2-10.1 3.7-10.8.7-.9 6.3-1.2 21.8-1.2 11.4 0 21 .3 21.3.8.2.4-2.1 8.4-5.3 17.7-3.2 9.4-14 41.5-24.1 71.5-10.1 30-21.3 63.3-24.9 74l-6.6 19.5-24.2.3-24.2.2-8.5-26.2C262 399.3 254.5 376 250 362c-18.7-58.4-25.4-79.2-29.4-91.7-2.8-8.5-3.9-13.4-3.2-13.7 2.2-.9 43.5-.6 44 .3zm254.4 278.8l-.3 58.8h-405l-.3-58.8-.2-58.7h406l-.2 58.7z"/></svg>